<?xml version="1.0" standalone="no"?>
<!DOCTYPE svg PUBLIC "-//W3C//DTD SVG 20010904//EN"
 "http://www.w3.org/TR/2001/REC-SVG-20010904/DTD/svg10.dtd">
<svg version="1.0" xmlns="http://www.w3.org/2000/svg"
 width="512.000000pt" height="512.000000pt" viewBox="0 0 512.000000 512.000000"
 preserveAspectRatio="xMidYMid meet">
<metadata>
Created by potrace 1.14, written by Peter Selinger 2001-2017
</metadata>
<g transform="translate(0.000000,512.000000) scale(0.100000,-0.100000)"
fill="#000000" stroke="none">
<path d="M1215 3466 c-358 -61 -596 -269 -702 -613 -25 -83 -27 -100 -27 -283
-1 -231 13 -299 96 -470 46 -94 61 -115 152 -206 90 -89 113 -106 206 -152
163 -80 239 -96 455 -96 157 -1 191 2 265 22 220 59 415 200 543 391 l47 69 0
286 0 286 -462 -2 -463 -3 0 -200 0 -200 224 -5 223 -5 -51 -48 c-83 -78 -124
-92 -271 -91 -105 0 -134 3 -181 22 -125 50 -191 147 -211 310 -21 168 21 314
115 397 60 55 122 75 231 75 93 0 160 -25 210 -79 l30 -31 298 0 298 0 -7 33
c-12 65 -55 183 -85 236 -43 75 -147 183 -225 231 -82 52 -186 94 -288 115
-108 23 -318 28 -420 11z"/>
<path d="M2450 2555 l0 -905 285 0 285 0 2 446 3 446 109 -353 c60 -195 122
-396 138 -446 l29 -93 243 0 243 0 133 433 c73 237 137 439 141 447 5 8 9
-186 9 -432 l0 -448 280 0 280 0 0 905 0 905 -347 -2 -348 -3 -190 -532 c-104
-293 -193 -533 -196 -533 -3 0 -94 240 -201 533 l-196 532 -351 3 -351 2 0
-905z"/>
</g>
</svg>
